<svg xmlns="http://www.w3.org/2000/svg" xmlns:xlink="http://www.w3.org/1999/xlink" contentStyleType="text/css" data-diagram-type="SEQUENCE" height="972px" preserveAspectRatio="none" style="width:1426px;height:972px;background:#FFFFFF;" version="1.1" viewBox="0 0 1426 972" width="1426px" zoomAndPan="magnify"><defs/><g><line style="stroke:#181818;stroke-width:0.5;stroke-dasharray:5.0,5.0;" x1="44" x2="44" y1="81.2969" y2="891.4844"/><line style="stroke:#181818;stroke-width:0.5;stroke-dasharray:5.0,5.0;" x1="119.5752" x2="119.5752" y1="81.2969" y2="891.4844"/><line style="stroke:#181818;stroke-width:0.5;stroke-dasharray:5.0,5.0;" x1="173.4395" x2="173.4395" y1="81.2969" y2="891.4844"/><line style="stroke:#181818;stroke-width:0.5;stroke-dasharray:5.0,5.0;" x1="295.3496" x2="295.3496" y1="81.2969" y2="891.4844"/><line style="stroke:#181818;stroke-width:0.5;stroke-dasharray:5.0,5.0;" x1="554.2285" x2="554.2285" y1="81.2969" y2="891.4844"/><line style="stroke:#181818;stroke-width:0.5;stroke-dasharray:5.0,5.0;" x1="811.4199" x2="811.4199" y1="81.2969" y2="891.4844"/><line style="stroke:#181818;stroke-width:0.5;stroke-dasharray:5.0,5.0;" x1="1048.5244" x2="1048.5244" y1="81.2969" y2="891.4844"/><line style="stroke:#181818;stroke-width:0.5;stroke-dasharray:5.0,5.0;" x1="1197.0449" x2="1197.0449" y1="81.2969" y2="891.4844"/><text fill="#000000" font-family="sans-serif" font-size="14" lengthAdjust="spacing" textLength="73.5752" x="5" y="77.9951">IoT Device</text><ellipse cx="44.7876" cy="13.5" fill="#E2E2F0" rx="8" ry="8" style="stroke:#181818;stroke-width:0.5;"/><path d="M44.7876,21.5 L44.7876,48.5 M31.7876,29.5 L57.7876,29.5 M44.7876,48.5 L31.7876,63.5 M44.7876,48.5 L57.7876,63.5 " fill="none" style="stroke:#181818;stroke-width:0.5;"/><text fill="#000000" font-family="sans-serif" font-size="14" lengthAdjust="spacing" textLength="73.5752" x="5" y="903.4795">IoT Device</text><ellipse cx="44.7876" cy="915.2813" fill="#E2E2F0" rx="8" ry="8" style="stroke:#181818;stroke-width:0.5;"/><path d="M44.7876,923.2813 L44.7876,950.2813 M31.7876,931.2813 L57.7876,931.2813 M44.7876,950.2813 L31.7876,965.2813 M44.7876,950.2813 L57.7876,965.2813 " fill="none" style="stroke:#181818;stroke-width:0.5;"/><text fill="#000000" font-family="sans-serif" font-size="14" lengthAdjust="spacing" textLength="44.8643" x="94.5752" y="77.9951">Admin</text><ellipse cx="120.0073" cy="13.5" fill="#E2E2F0" rx="8" ry="8" style="stroke:#181818;stroke-width:0.5;"/><path d="M120.0073,21.5 L120.0073,48.5 M107.0073,29.5 L133.0073,29.5 M120.0073,48.5 L107.0073,63.5 M120.0073,48.5 L133.0073,63.5 " fill="none" style="stroke:#181818;stroke-width:0.5;"/><text fill="#000000" font-family="sans-serif" font-size="14" lengthAdjust="spacing" textLength="44.8643" x="94.5752" y="903.4795">Admin</text><ellipse cx="120.0073" cy="915.2813" fill="#E2E2F0" rx="8" ry="8" style="stroke:#181818;stroke-width:0.5;"/><path d="M120.0073,923.2813 L120.0073,950.2813 M107.0073,931.2813 L133.0073,931.2813 M120.0073,950.2813 L107.0073,965.2813 M120.0073,950.2813 L133.0073,965.2813 " fill="none" style="stroke:#181818;stroke-width:0.5;"/><text fill="#000000" font-family="sans-serif" font-size="14" lengthAdjust="spacing" textLength="31.9102" x="155.4395" y="77.9951">User</text><ellipse cx="174.3945" cy="13.5" fill="#E2E2F0" rx="8" ry="8" style="stroke:#181818;stroke-width:0.5;"/><path d="M174.3945,21.5 L174.3945,48.5 M161.3945,29.5 L187.3945,29.5 M174.3945,48.5 L161.3945,63.5 M174.3945,48.5 L187.3945,63.5 " fill="none" style="stroke:#181818;stroke-width:0.5;"/><text fill="#000000" font-family="sans-serif" font-size="14" lengthAdjust="spacing" textLength="31.9102" x="155.4395" y="903.4795">User</text><ellipse cx="174.3945" cy="915.2813" fill="#E2E2F0" rx="8" ry="8" style="stroke:#181818;stroke-width:0.5;"/><path d="M174.3945,923.2813 L174.3945,950.2813 M161.3945,931.2813 L187.3945,931.2813 M174.3945,950.2813 L161.3945,965.2813 M174.3945,950.2813 L187.3945,965.2813 " fill="none" style="stroke:#181818;stroke-width:0.5;"/><rect fill="#E2E2F0" height="30.2969" rx="2.5" ry="2.5" style="stroke:#181818;stroke-width:0.5;" width="184.8027" x="203.3496" y="50"/><text fill="#000000" font-family="sans-serif" font-size="14" lengthAdjust="spacing" textLength="170.8027" x="210.3496" y="69.9951">ThinkSpeak IoT Platform</text><rect fill="#E2E2F0" height="30.2969" rx="2.5" ry="2.5" style="stroke:#181818;stroke-width:0.5;" width="184.8027" x="203.3496" y="890.4844"/><text fill="#000000" font-family="sans-serif" font-size="14" lengthAdjust="spacing" textLength="170.8027" x="210.3496" y="910.4795">ThinkSpeak IoT Platform</text><rect fill="#E2E2F0" height="30.2969" rx="2.5" ry="2.5" style="stroke:#181818;stroke-width:0.5;" width="172.6826" x="468.2285" y="50"/><text fill="#000000" font-family="sans-serif" font-size="14" lengthAdjust="spacing" textLength="158.6826" x="475.2285" y="69.9951">Data Ingestion Service</text><rect fill="#E2E2F0" height="30.2969" rx="2.5" ry="2.5" style="stroke:#181818;stroke-width:0.5;" width="172.6826" x="468.2285" y="890.4844"/><text fill="#000000" font-family="sans-serif" font-size="14" lengthAdjust="spacing" textLength="158.6826" x="475.2285" y="910.4795">Data Ingestion Service</text><rect fill="#E2E2F0" height="30.2969" rx="2.5" ry="2.5" style="stroke:#181818;stroke-width:0.5;" width="140.8271" x="741.4199" y="50"/><text fill="#000000" font-family="sans-serif" font-size="14" lengthAdjust="spacing" textLength="126.8271" x="748.4199" y="69.9951">Waste Bin Service</text><rect fill="#E2E2F0" height="30.2969" rx="2.5" ry="2.5" style="stroke:#181818;stroke-width:0.5;" width="140.8271" x="741.4199" y="890.4844"/><text fill="#000000" font-family="sans-serif" font-size="14" lengthAdjust="spacing" textLength="126.8271" x="748.4199" y="910.4795">Waste Bin Service</text><rect fill="#E2E2F0" height="30.2969" rx="2.5" ry="2.5" style="stroke:#181818;stroke-width:0.5;" width="150.5205" x="973.5244" y="50"/><text fill="#000000" font-family="sans-serif" font-size="14" lengthAdjust="spacing" textLength="136.5205" x="980.5244" y="69.9951">Notification Service</text><rect fill="#E2E2F0" height="30.2969" rx="2.5" ry="2.5" style="stroke:#181818;stroke-width:0.5;" width="150.5205" x="973.5244" y="890.4844"/><text fill="#000000" font-family="sans-serif" font-size="14" lengthAdjust="spacing" textLength="136.5205" x="980.5244" y="910.4795">Notification Service</text><rect fill="#E2E2F0" height="30.2969" rx="2.5" ry="2.5" style="stroke:#181818;stroke-width:0.5;" width="127.6885" x="1134.0449" y="50"/><text fill="#000000" font-family="sans-serif" font-size="14" lengthAdjust="spacing" textLength="113.6885" x="1141.0449" y="69.9951">Request Service</text><rect fill="#E2E2F0" height="30.2969" rx="2.5" ry="2.5" style="stroke:#181818;stroke-width:0.5;" width="127.6885" x="1134.0449" y="890.4844"/><text fill="#000000" font-family="sans-serif" font-size="14" lengthAdjust="spacing" textLength="113.6885" x="1141.0449" y="910.4795">Request Service</text><polygon fill="#181818" points="283.751,108.4297,293.751,112.4297,283.751,116.4297,287.751,112.4297" style="stroke:#181818;stroke-width:1;"/><line style="stroke:#181818;stroke-width:1;" x1="44.7876" x2="289.751" y1="112.4297" y2="112.4297"/><text fill="#000000" font-family="sans-serif" font-size="13" lengthAdjust="spacing" textLength="219.4829" x="51.7876" y="107.3638">Collect real-time data (bin status)</text><line style="stroke:#181818;stroke-width:1;" x1="295.751" x2="337.751" y1="141.5625" y2="141.5625"/><line style="stroke:#181818;stroke-width:1;" x1="337.751" x2="337.751" y1="141.5625" y2="154.5625"/><line style="stroke:#181818;stroke-width:1;" x1="296.751" x2="337.751" y1="154.5625" y2="154.5625"/><polygon fill="#181818" points="306.751,150.5625,296.751,154.5625,306.751,158.5625,302.751,154.5625" style="stroke:#181818;stroke-width:1;"/><text fill="#000000" font-family="sans-serif" font-size="13" lengthAdjust="spacing" textLength="149.1318" x="302.751" y="136.4966">Process and store data</text><polygon fill="#181818" points="542.5698,179.6953,552.5698,183.6953,542.5698,187.6953,546.5698,183.6953" style="stroke:#181818;stroke-width:1;"/><line style="stroke:#181818;stroke-width:1;" x1="295.751" x2="548.5698" y1="183.6953" y2="183.6953"/><text fill="#000000" font-family="sans-serif" font-size="13" lengthAdjust="spacing" textLength="234.8188" x="302.751" y="178.6294">Send data to Data Ingestion Service</text><polygon fill="#181818" points="799.8335,208.8281,809.8335,212.8281,799.8335,216.8281,803.8335,212.8281" style="stroke:#181818;stroke-width:1;"/><line style="stroke:#181818;stroke-width:1;" x1="554.5698" x2="805.8335" y1="212.8281" y2="212.8281"/><text fill="#000000" font-family="sans-serif" font-size="13" lengthAdjust="spacing" textLength="233.2637" x="561.5698" y="207.7622">Update waste bin status (with data)</text><line style="stroke:#181818;stroke-width:1;" x1="811.8335" x2="853.8335" y1="241.9609" y2="241.9609"/><line style="stroke:#181818;stroke-width:1;" x1="853.8335" x2="853.8335" y1="241.9609" y2="254.9609"/><line style="stroke:#181818;stroke-width:1;" x1="812.8335" x2="853.8335" y1="254.9609" y2="254.9609"/><polygon fill="#181818" points="822.8335,250.9609,812.8335,254.9609,822.8335,258.9609,818.8335,254.9609" style="stroke:#181818;stroke-width:1;"/><text fill="#000000" font-family="sans-serif" font-size="13" lengthAdjust="spacing" textLength="214.5635" x="818.8335" y="236.895">Save updated status in database</text><polygon fill="#181818" points="565.5698,280.0938,555.5698,284.0938,565.5698,288.0938,561.5698,284.0938" style="stroke:#181818;stroke-width:1;"/><line style="stroke:#181818;stroke-width:1;stroke-dasharray:2.0,2.0;" x1="559.5698" x2="810.8335" y1="284.0938" y2="284.0938"/><text fill="#000000" font-family="sans-serif" font-size="13" lengthAdjust="spacing" textLength="150.9346" x="571.5698" y="279.0278">Confirmation of update</text><polygon fill="#181818" points="1036.7847,309.2266,1046.7847,313.2266,1036.7847,317.2266,1040.7847,313.2266" style="stroke:#181818;stroke-width:1;"/><line style="stroke:#181818;stroke-width:1;" x1="554.5698" x2="1042.7847" y1="313.2266" y2="313.2266"/><text fill="#000000" font-family="sans-serif" font-size="13" lengthAdjust="spacing" textLength="282.1914" x="561.5698" y="308.1606">Send alert if bin fill level is above threshold</text><polygon fill="#181818" points="131.0073,338.3594,121.0073,342.3594,131.0073,346.3594,127.0073,342.3594" style="stroke:#181818;stroke-width:1;"/><line style="stroke:#181818;stroke-width:1;" x1="125.0073" x2="1047.7847" y1="342.3594" y2="342.3594"/><text fill="#000000" font-family="sans-serif" font-size="13" lengthAdjust="spacing" textLength="193.2734" x="137.0073" y="337.2935">Notify about bin fill level alert</text><polygon fill="#181818" points="799.8335,367.4922,809.8335,371.4922,799.8335,375.4922,803.8335,371.4922" style="stroke:#181818;stroke-width:1;"/><line style="stroke:#181818;stroke-width:1;" x1="120.0073" x2="805.8335" y1="371.4922" y2="371.4922"/><text fill="#000000" font-family="sans-serif" font-size="13" lengthAdjust="spacing" textLength="214.9761" x="127.0073" y="366.4263">Create waste collection schedule</text><line style="stroke:#181818;stroke-width:1;" x1="811.8335" x2="853.8335" y1="400.625" y2="400.625"/><line style="stroke:#181818;stroke-width:1;" x1="853.8335" x2="853.8335" y1="400.625" y2="413.625"/><line style="stroke:#181818;stroke-width:1;" x1="812.8335" x2="853.8335" y1="413.625" y2="413.625"/><polygon fill="#181818" points="822.8335,409.625,812.8335,413.625,822.8335,417.625,818.8335,413.625" style="stroke:#181818;stroke-width:1;"/><text fill="#000000" font-family="sans-serif" font-size="13" lengthAdjust="spacing" textLength="174.6875" x="818.8335" y="395.5591">Save schedule in database</text><polygon fill="#181818" points="1036.7847,438.7578,1046.7847,442.7578,1036.7847,446.7578,1040.7847,442.7578" style="stroke:#181818;stroke-width:1;"/><line style="stroke:#181818;stroke-width:1;" x1="811.8335" x2="1042.7847" y1="442.7578" y2="442.7578"/><text fill="#000000" font-family="sans-serif" font-size="13" lengthAdjust="spacing" textLength="212.9512" x="818.8335" y="437.6919">Notify users about new schedule</text><polygon fill="#181818" points="185.3945,467.8906,175.3945,471.8906,185.3945,475.8906,181.3945,471.8906" style="stroke:#181818;stroke-width:1;"/><line style="stroke:#181818;stroke-width:1;" x1="179.3945" x2="1047.7847" y1="471.8906" y2="471.8906"/><text fill="#000000" font-family="sans-serif" font-size="13" lengthAdjust="spacing" textLength="214.0112" x="191.3945" y="466.8247">Send notification about schedule</text><polygon fill="#181818" points="1185.8892,497.0234,1195.8892,501.0234,1185.8892,505.0234,1189.8892,501.0234" style="stroke:#181818;stroke-width:1;"/><line style="stroke:#181818;stroke-width:1;" x1="174.3945" x2="1191.8892" y1="501.0234" y2="501.0234"/><text fill="#000000" font-family="sans-serif" font-size="13" lengthAdjust="spacing" textLength="157.9995" x="181.3945" y="495.9575">Request new waste bins</text><line style="stroke:#181818;stroke-width:1;" x1="1197.8892" x2="1239.8892" y1="530.1563" y2="530.1563"/><line style="stroke:#181818;stroke-width:1;" x1="1239.8892" x2="1239.8892" y1="530.1563" y2="543.1563"/><line style="stroke:#181818;stroke-width:1;" x1="1198.8892" x2="1239.8892" y1="543.1563" y2="543.1563"/><polygon fill="#181818" points="1208.8892,539.1563,1198.8892,543.1563,1208.8892,547.1563,1204.8892,543.1563" style="stroke:#181818;stroke-width:1;"/><text fill="#000000" font-family="sans-serif" font-size="13" lengthAdjust="spacing" textLength="190.3662" x="1204.8892" y="525.0903">Save bin request in database</text><polygon fill="#181818" points="185.3945,568.2891,175.3945,572.2891,185.3945,576.2891,181.3945,572.2891" style="stroke:#181818;stroke-width:1;"/><line style="stroke:#181818;stroke-width:1;stroke-dasharray:2.0,2.0;" x1="179.3945" x2="1196.8892" y1="572.2891" y2="572.2891"/><text fill="#000000" font-family="sans-serif" font-size="13" lengthAdjust="spacing" textLength="164.5757" x="191.3945" y="567.2231">Acknowledge bin request</text><polygon fill="#181818" points="1185.8892,597.4219,1195.8892,601.4219,1185.8892,605.4219,1189.8892,601.4219" style="stroke:#181818;stroke-width:1;"/><line style="stroke:#181818;stroke-width:1;" x1="174.3945" x2="1191.8892" y1="601.4219" y2="601.4219"/><text fill="#000000" font-family="sans-serif" font-size="13" lengthAdjust="spacing" textLength="110.8301" x="181.3945" y="596.356">Raise complaints</text><line style="stroke:#181818;stroke-width:1;" x1="1197.8892" x2="1239.8892" y1="630.5547" y2="630.5547"/><line style="stroke:#181818;stroke-width:1;" x1="1239.8892" x2="1239.8892" y1="630.5547" y2="643.5547"/><line style="stroke:#181818;stroke-width:1;" x1="1198.8892" x2="1239.8892" y1="643.5547" y2="643.5547"/><polygon fill="#181818" points="1208.8892,639.5547,1198.8892,643.5547,1208.8892,647.5547,1204.8892,643.5547" style="stroke:#181818;stroke-width:1;"/><text fill="#000000" font-family="sans-serif" font-size="13" lengthAdjust="spacing" textLength="180.9717" x="1204.8892" y="625.4888">Save complaint in database</text><polygon fill="#181818" points="185.3945,668.6875,175.3945,672.6875,185.3945,676.6875,181.3945,672.6875" style="stroke:#181818;stroke-width:1;"/><line style="stroke:#181818;stroke-width:1;stroke-dasharray:2.0,2.0;" x1="179.3945" x2="1196.8892" y1="672.6875" y2="672.6875"/><text fill="#000000" font-family="sans-serif" font-size="13" lengthAdjust="spacing" textLength="155.1812" x="191.3945" y="667.6216">Acknowledge complaint</text><polygon fill="#181818" points="799.8335,697.8203,809.8335,701.8203,799.8335,705.8203,803.8335,701.8203" style="stroke:#181818;stroke-width:1;"/><line style="stroke:#181818;stroke-width:1;" x1="174.3945" x2="805.8335" y1="701.8203" y2="701.8203"/><text fill="#000000" font-family="sans-serif" font-size="13" lengthAdjust="spacing" textLength="133.396" x="181.3945" y="696.7544">View fill level of bins</text><line style="stroke:#181818;stroke-width:1;" x1="811.8335" x2="853.8335" y1="730.9531" y2="730.9531"/><line style="stroke:#181818;stroke-width:1;" x1="853.8335" x2="853.8335" y1="730.9531" y2="743.9531"/><line style="stroke:#181818;stroke-width:1;" x1="812.8335" x2="853.8335" y1="743.9531" y2="743.9531"/><polygon fill="#181818" points="822.8335,739.9531,812.8335,743.9531,822.8335,747.9531,818.8335,743.9531" style="stroke:#181818;stroke-width:1;"/><text fill="#000000" font-family="sans-serif" font-size="13" lengthAdjust="spacing" textLength="222.1616" x="818.8335" y="725.8872">Retrieve bin status from database</text><polygon fill="#181818" points="185.3945,769.0859,175.3945,773.0859,185.3945,777.0859,181.3945,773.0859" style="stroke:#181818;stroke-width:1;"/><line style="stroke:#181818;stroke-width:1;stroke-dasharray:2.0,2.0;" x1="179.3945" x2="810.8335" y1="773.0859" y2="773.0859"/><text fill="#000000" font-family="sans-serif" font-size="13" lengthAdjust="spacing" textLength="103.3906" x="191.3945" y="768.02">Show bin status</text><polygon fill="#181818" points="1185.8892,798.2188,1195.8892,802.2188,1185.8892,806.2188,1189.8892,802.2188" style="stroke:#181818;stroke-width:1;"/><line style="stroke:#181818;stroke-width:1;" x1="120.0073" x2="1191.8892" y1="802.2188" y2="802.2188"/><text fill="#000000" font-family="sans-serif" font-size="13" lengthAdjust="spacing" textLength="216.2837" x="127.0073" y="797.1528">Manage requests and complaints</text><line style="stroke:#181818;stroke-width:1;" x1="1197.8892" x2="1239.8892" y1="831.3516" y2="831.3516"/><line style="stroke:#181818;stroke-width:1;" x1="1239.8892" x2="1239.8892" y1="831.3516" y2="844.3516"/><line style="stroke:#181818;stroke-width:1;" x1="1198.8892" x2="1239.8892" y1="844.3516" y2="844.3516"/><polygon fill="#181818" points="1208.8892,840.3516,1198.8892,844.3516,1208.8892,848.3516,1204.8892,844.3516" style="stroke:#181818;stroke-width:1;"/><text fill="#000000" font-family="sans-serif" font-size="13" lengthAdjust="spacing" textLength="214.4746" x="1204.8892" y="826.2856">Process requests and complaints</text><polygon fill="#181818" points="131.0073,869.4844,121.0073,873.4844,131.0073,877.4844,127.0073,873.4844" style="stroke:#181818;stroke-width:1;"/><line style="stroke:#181818;stroke-width:1;stroke-dasharray:2.0,2.0;" x1="125.0073" x2="1196.8892" y1="873.4844" y2="873.4844"/><text fill="#000000" font-family="sans-serif" font-size="13" lengthAdjust="spacing" textLength="244.1245" x="137.0073" y="868.4185">Update status of requests/complaints</text><!--SRC=[ZPExRkCm44LxViN0LL84sxjO8B4R5si4KhAfnz8e8aoH2abPsBzVFlMmWiLsadZkpBt34LPMQTYTr1iSwSOhsW4QSAyCuybptN4PFeQd_FdTa0vV_GDZFMhBAzwZjB1xQxcybZtXrHU2Lu6sKRhBbGzAqrfmH8jmafzaB5SIIjAJa-EfNBCVQ2p12rzZ7ozts5bPtl0ADmNFTs11NuFhksAAaZ7l_Ebdzhk7WnA2AWkQK3nPtX7KtlN3nJan5krW7bc2LxfNhIeo1b3MZlEdNhT4NSIzQ-_EGqMhuFjvCEP8Bt1Xz_3UEvfW3EEOJS33o6qRAZqo1qvyYJU28OZgp3gL1ozeABBPpK79XkikJayrIJSPE6V3A4XRu4qmq70XGD2D172Nzw9SGzjgCgqIDJi7PTYXFOJR-UEPmTvhGqt60ZcvFxYnJschU1NUcwbQgWT1swZvP1io-ayM1hU-9XcHDCu5er-_tIchN6vK54mmyvpd2rSvRvGlDrsFOKMPWU3FfzQ9N5eiuZN4ni_LLQfHKFsv4jprGsxyKBfU89Tsqsaw-Ry-4pvt2LFzpLsUnJsf9kPQJhuWgpdTLWlPQDLjromDjbNZWbtSkdV_2oKwGobq_8M-ZPd_iN-Hy_AbFoVPSp6oxCSi-Gi0]--></g></svg>