<svg xmlns="http://www.w3.org/2000/svg" xmlns:xlink="http://www.w3.org/1999/xlink" contentStyleType="text/css" height="1562px" preserveAspectRatio="none" style="width:486px;height:1562px;background:#FFFFFF;" version="1.1" viewBox="0 0 486 1562" width="486px" zoomAndPan="magnify"><defs/><g><!--cluster Waste Management System--><g id="cluster_Waste Management System"><rect fill="none" height="1549" rx="2.5" ry="2.5" style="stroke:#181818;stroke-width:1.0;" width="267.29" x="123.58" y="7"/><text fill="#000000" font-family="sans-serif" font-size="14" font-weight="bold" lengthAdjust="spacing" textLength="220.5273" x="146.9613" y="21.9951">Waste Management System</text></g><g id="elem_Register"><ellipse cx="257.2184" cy="755.0032" fill="#F1F1F1" rx="53.5484" ry="14.7232" style="stroke:#181818;stroke-width:0.5;"/><text fill="#000000" font-family="sans-serif" font-size="14" lengthAdjust="spacing" textLength="58.2695" x="225.0836" y="758.7507">Register</text></g><g id="elem_Login"><ellipse cx="257.2241" cy="690.9957" fill="#F1F1F1" rx="38.4641" ry="14.5557" style="stroke:#181818;stroke-width:0.5;"/><text fill="#000000" font-family="sans-serif" font-size="14" lengthAdjust="spacing" textLength="38.0146" x="236.35" y="694.4506">Login</text></g><g id="elem_List status of all bins"><ellipse cx="257.2185" cy="1357.9977" fill="#F1F1F1" rx="91.0385" ry="20.6077" style="stroke:#181818;stroke-width:0.5;"/><text fill="#000000" font-family="sans-serif" font-size="14" lengthAdjust="spacing" textLength="144.0879" x="185.1746" y="1360.8444">List status of all bins</text></g><g id="elem_Manage collection schedule"><ellipse cx="257.2209" cy="1277.0022" fill="#F1F1F1" rx="113.9609" ry="25.1922" style="stroke:#181818;stroke-width:0.5;"/><text fill="#000000" font-family="sans-serif" font-size="14" lengthAdjust="spacing" textLength="194.4209" x="160.0105" y="1279.8489">Manage collection schedule</text></g><g id="elem_CRUD on bins"><ellipse cx="257.218" cy="1200.0016" fill="#F1F1F1" rx="71.108" ry="16.6216" style="stroke:#181818;stroke-width:0.5;"/><text fill="#000000" font-family="sans-serif" font-size="14" lengthAdjust="spacing" textLength="95.8125" x="206.3117" y="1203.7492">CRUD on bins</text></g><g id="elem_Get bin full alert"><ellipse cx="257.2184" cy="1129.9997" fill="#F1F1F1" rx="78.0984" ry="18.0197" style="stroke:#181818;stroke-width:0.5;"/><text fill="#000000" font-family="sans-serif" font-size="14" lengthAdjust="spacing" textLength="113.8594" x="197.8765" y="1133.5915">Get bin full alert</text></g><g id="elem_Get weather alert"><ellipse cx="257.2189" cy="1057.9998" fill="#F1F1F1" rx="82.0989" ry="18.8198" style="stroke:#181818;stroke-width:0.5;"/><text fill="#000000" font-family="sans-serif" font-size="14" lengthAdjust="spacing" textLength="123.5527" x="194.5392" y="1061.147">Get weather alert</text></g><g id="elem_Manage complaints"><ellipse cx="257.2224" cy="984.0005" fill="#F1F1F1" rx="87.8524" ry="19.9705" style="stroke:#181818;stroke-width:0.5;"/><text fill="#000000" font-family="sans-serif" font-size="14" lengthAdjust="spacing" textLength="136.8623" x="188.7912" y="986.8472">Manage complaints</text></g><g id="elem_View nearby wastebins"><ellipse cx="257.2236" cy="619.0047" fill="#F1F1F1" rx="98.9736" ry="22.1947" style="stroke:#181818;stroke-width:0.5;"/><text fill="#000000" font-family="sans-serif" font-size="14" lengthAdjust="spacing" textLength="161.793" x="176.3271" y="621.8514">View nearby wastebins</text></g><g id="elem_Check bin status"><ellipse cx="257.2241" cy="544.0048" fill="#F1F1F1" rx="79.2241" ry="18.2448" style="stroke:#181818;stroke-width:0.5;"/><text fill="#000000" font-family="sans-serif" font-size="14" lengthAdjust="spacing" textLength="116.6348" x="196.9429" y="547.4716">Check bin status</text></g><g id="elem_Get collection notification"><ellipse cx="257.2231" cy="467.0046" fill="#F1F1F1" rx="107.1731" ry="23.8346" style="stroke:#181818;stroke-width:0.5;"/><text fill="#000000" font-family="sans-serif" font-size="14" lengthAdjust="spacing" textLength="179.751" x="167.3476" y="469.8513">Get collection notification</text></g><g id="elem_Get waste segregation guide"><ellipse cx="257.2153" cy="381.9991" fill="#F1F1F1" rx="117.6453" ry="25.9291" style="stroke:#181818;stroke-width:0.5;"/><text fill="#000000" font-family="sans-serif" font-size="14" lengthAdjust="spacing" textLength="202.3232" x="156.0537" y="384.8457">Get waste segregation guide</text></g><g id="elem_Get category of waste"><ellipse cx="257.2216" cy="299.0003" fill="#F1F1F1" rx="95.9516" ry="21.5903" style="stroke:#181818;stroke-width:0.5;"/><text fill="#000000" font-family="sans-serif" font-size="14" lengthAdjust="spacing" textLength="155.0938" x="179.6748" y="301.847">Get category of waste</text></g><g id="elem_Register complaints"><ellipse cx="257.221" cy="222.0042" fill="#F1F1F1" rx="89.021" ry="20.2042" style="stroke:#181818;stroke-width:0.5;"/><text fill="#000000" font-family="sans-serif" font-size="14" lengthAdjust="spacing" textLength="139.5215" x="187.4603" y="224.8509">Register complaints</text></g><g id="elem_Check complaints status"><ellipse cx="257.2204" cy="144.0041" fill="#F1F1F1" rx="103.5204" ry="23.1041" style="stroke:#181818;stroke-width:0.5;"/><text fill="#000000" font-family="sans-serif" font-size="14" lengthAdjust="spacing" textLength="171.7871" x="171.3268" y="146.8508">Check complaints status</text></g><g id="elem_Get collection schedule"><ellipse cx="257.2157" cy="64.0031" fill="#F1F1F1" rx="99.8657" ry="22.3731" style="stroke:#181818;stroke-width:0.5;"/><text fill="#000000" font-family="sans-serif" font-size="14" lengthAdjust="spacing" textLength="163.7617" x="175.3349" y="66.8498">Get collection schedule</text></g><g id="elem_Collect real-time data"><ellipse cx="257.2174" cy="908.0015" fill="#F1F1F1" rx="94.5074" ry="21.3015" style="stroke:#181818;stroke-width:0.5;"/><text fill="#000000" font-family="sans-serif" font-size="14" lengthAdjust="spacing" textLength="151.874" x="181.2804" y="910.8482">Collect real-time data</text></g><g id="elem_Data transfer to IoT Core"><ellipse cx="257.2249" cy="828.005" fill="#F1F1F1" rx="104.7749" ry="23.355" style="stroke:#181818;stroke-width:0.5;"/><text fill="#000000" font-family="sans-serif" font-size="14" lengthAdjust="spacing" textLength="174.5283" x="169.9607" y="830.8517">Data transfer to IoT Core</text></g><g id="elem_Provide weather data"><ellipse cx="257.2197" cy="1518.9959" fill="#F1F1F1" rx="93.7797" ry="21.1559" style="stroke:#181818;stroke-width:0.5;"/><text fill="#000000" font-family="sans-serif" font-size="14" lengthAdjust="spacing" textLength="150.2471" x="182.0962" y="1521.8426">Provide weather data</text></g><g id="elem_Provide notification service"><ellipse cx="257.2184" cy="1438.0017" fill="#F1F1F1" rx="112.0084" ry="24.8017" style="stroke:#181818;stroke-width:0.5;"/><text fill="#000000" font-family="sans-serif" font-size="14" lengthAdjust="spacing" textLength="190.2168" x="162.11" y="1440.8484">Provide notification service</text></g><!--entity User--><g id="elem_User"><ellipse cx="42.7851" cy="395.35" fill="#F1F1F1" rx="8" ry="8" style="stroke:#181818;stroke-width:0.5;"/><path d="M42.7851,403.35 L42.7851,430.35 M29.7851,411.35 L55.7851,411.35 M42.7851,430.35 L29.7851,445.35 M42.7851,430.35 L55.7851,445.35 " fill="none" style="stroke:#181818;stroke-width:0.5;"/><text fill="#000000" font-family="sans-serif" font-size="14" lengthAdjust="spacing" textLength="31.9102" x="26.83" y="459.8451">User</text></g><!--entity IOT--><g id="elem_IOT"><ellipse cx="42.7876" cy="838.35" fill="#F1F1F1" rx="8" ry="8" style="stroke:#181818;stroke-width:0.5;"/><path d="M42.7876,846.35 L42.7876,873.35 M29.7876,854.35 L55.7876,854.35 M42.7876,873.35 L29.7876,888.35 M42.7876,873.35 L55.7876,888.35 " fill="none" style="stroke:#181818;stroke-width:0.5;"/><text fill="#000000" font-family="sans-serif" font-size="14" lengthAdjust="spacing" textLength="73.5752" x="6" y="902.8451">IoT Device</text></g><!--entity API--><g id="elem_API"><ellipse cx="42.7887" cy="1448.35" fill="#F1F1F1" rx="8" ry="8" style="stroke:#181818;stroke-width:0.5;"/><path d="M42.7887,1456.35 L42.7887,1483.35 M29.7887,1464.35 L55.7887,1464.35 M42.7887,1483.35 L29.7887,1498.35 M42.7887,1483.35 L55.7887,1498.35 " fill="none" style="stroke:#181818;stroke-width:0.5;"/><text fill="#000000" font-family="sans-serif" font-size="14" lengthAdjust="spacing" textLength="68.2773" x="8.65" y="1512.8451">Public API</text></g><!--entity Admin--><g id="elem_Admin"><ellipse cx="457.3021" cy="1064.35" fill="#F1F1F1" rx="8" ry="8" style="stroke:#181818;stroke-width:0.5;"/><path d="M457.3021,1072.35 L457.3021,1099.35 M444.3021,1080.35 L470.3021,1080.35 M457.3021,1099.35 L444.3021,1114.35 M457.3021,1099.35 L470.3021,1114.35 " fill="none" style="stroke:#181818;stroke-width:0.5;"/><text fill="#000000" font-family="sans-serif" font-size="14" lengthAdjust="spacing" textLength="44.8643" x="434.87" y="1128.8451">Admin</text></g><!--reverse link Register to Admin--><g id="link_Register_Admin"><path d="M316.825,754.0235 C346.645,756.1335 376.38,763.63 398.87,787 C435.33,824.91 449.51,981.66 454.24,1055.37 " fill="none" id="Register-backto-Admin" style="stroke:#181818;stroke-width:1.0;"/><polygon fill="#181818" points="310.84,753.6,319.5352,758.2253,315.8275,753.9529,320.0999,750.2452,310.84,753.6" style="stroke:#181818;stroke-width:1.0;"/></g><!--reverse link Login to Admin--><g id="link_Login_Admin"><path d="M301.5198,688.8086 C333.6098,689.0686 372.74,694.98 398.87,723 C443.31,770.67 453.36,970.3 455.64,1055.35 " fill="none" id="Login-backto-Admin" style="stroke:#181818;stroke-width:1.0;"/><polygon fill="#181818" points="295.52,688.76,304.4873,692.8328,300.5198,688.8005,304.5521,684.833,295.52,688.76" style="stroke:#181818;stroke-width:1.0;"/></g><!--reverse link List status of all bins to Admin--><g id="link_List status of all bins_Admin"><path d="M347.8731,1348.828 C368.7531,1343.198 383.69,1335.41 398.87,1320 C424.86,1293.61 443.04,1189.46 451.29,1132.21 " fill="none" id="List status of all bins-backto-Admin" style="stroke:#181818;stroke-width:1.0;"/><polygon fill="#181818" points="342.08,1350.39,351.811,1351.909,346.9076,1349.0883,349.7283,1344.1849,342.08,1350.39" style="stroke:#181818;stroke-width:1.0;"/></g><!--reverse link Manage collection schedule to Admin--><g id="link_Manage collection schedule_Admin"><path d="M355.2597,1259.878 C373.1597,1253.578 385,1246.64 398.87,1234 C427.99,1207.45 442.7,1163.95 449.89,1132.48 " fill="none" id="Manage collection schedule-backto-Admin" style="stroke:#181818;stroke-width:1.0;"/><polygon fill="#181818" points="349.6,1261.87,359.4175,1262.6552,354.3164,1260.21,356.7616,1255.1089,349.6,1261.87" style="stroke:#181818;stroke-width:1.0;"/></g><!--reverse link CRUD on bins to Admin--><g id="link_CRUD on bins_Admin"><path d="M328.9041,1192.3479 C354.0641,1187.5579 376.3,1180.38 398.87,1166 C412.89,1157.06 425,1143.51 434.43,1130.56 " fill="none" id="CRUD on bins-backto-Admin" style="stroke:#181818;stroke-width:1.0;"/><polygon fill="#181818" points="323.01,1193.47,332.5993,1195.7162,327.9218,1192.5349,331.1031,1187.8574,323.01,1193.47" style="stroke:#181818;stroke-width:1.0;"/></g><!--reverse link Get bin full alert to Admin--><g id="link_Get bin full alert_Admin"><path d="M325.7133,1117.737 C364.7733,1110.637 407.06,1102.95 434.47,1097.97 " fill="none" id="Get bin full alert-backto-Admin" style="stroke:#181818;stroke-width:1.0;"/><polygon fill="#181818" points="319.81,1118.81,329.3803,1121.1359,324.7294,1117.9158,327.9495,1113.2649,319.81,1118.81" style="stroke:#181818;stroke-width:1.0;"/></g><!--reverse link Get weather alert to Admin--><g id="link_Get weather alert_Admin"><path d="M328.7032,1070.8133 C367.3132,1077.8333 408.01,1085.22 434.69,1090.07 " fill="none" id="Get weather alert-backto-Admin" style="stroke:#181818;stroke-width:1.0;"/><polygon fill="#181818" points="322.8,1069.74,330.9393,1075.2854,327.7193,1070.6344,332.3704,1067.4145,322.8,1069.74" style="stroke:#181818;stroke-width:1.0;"/></g><!--reverse link Manage complaints to Admin--><g id="link_Manage complaints_Admin"><path d="M337.8427,996.168 C360.5627,1001.818 378.99,1008.96 398.87,1022 C412.9,1031.21 425.09,1044.98 434.58,1058.01 " fill="none" id="Manage complaints-backto-Admin" style="stroke:#181818;stroke-width:1.0;"/><polygon fill="#181818" points="332.02,994.72,339.7887,1000.7737,336.8722,995.9266,341.7193,993.0102,332.02,994.72" style="stroke:#181818;stroke-width:1.0;"/></g><!--link User to Register--><g id="link_User_Register"><path d="M48.02,463.42 C56.73,535.47 78.99,686.87 115.58,723 C138.47,745.61 167.8387,753.106 197.3687,755.446 " fill="none" id="User-to-Register" style="stroke:#181818;stroke-width:1.0;"/><polygon fill="#181818" points="203.35,755.92,194.6941,751.2216,198.3656,755.525,194.0621,759.1966,203.35,755.92" style="stroke:#181818;stroke-width:1.0;"/></g><!--link User to Login--><g id="link_User_Login"><path d="M44.33,463.48 C47.24,515.55 60.46,607.82 115.58,659 C143.28,684.73 181.2431,691.047 212.6331,692.057 " fill="none" id="User-to-Login" style="stroke:#181818;stroke-width:1.0;"/><polygon fill="#181818" points="218.63,692.25,209.7633,687.9626,213.6326,692.0892,209.506,695.9585,218.63,692.25" style="stroke:#181818;stroke-width:1.0;"/></g><!--link User to View nearby wastebins--><g id="link_User_View nearby wastebins"><path d="M51.86,463.43 C61.24,498.73 80.19,549.97 115.58,580 C131.22,593.28 145.2922,600.3725 165.0822,606.1725 " fill="none" id="User-to-View nearby wastebins" style="stroke:#181818;stroke-width:1.0;"/><polygon fill="#181818" points="170.84,607.86,163.3283,601.4902,166.0418,606.4538,161.0783,609.1673,170.84,607.86" style="stroke:#181818;stroke-width:1.0;"/></g><!--link User to Check bin status--><g id="link_User_Check bin status"><path d="M59.06,449.7 C71.9,468.43 91.92,493.36 115.58,508 C137.12,521.33 157.561,528.4467 181.571,533.7467 " fill="none" id="User-to-Check bin status" style="stroke:#181818;stroke-width:1.0;"/><polygon fill="#181818" points="187.43,535.04,179.5038,529.1941,182.5475,533.9622,177.7794,537.006,187.43,535.04" style="stroke:#181818;stroke-width:1.0;"/></g><!--link User to Get collection notification--><g id="link_User_Get collection notification"><path d="M59.07,428.02 C83.42,432.84 126.8239,441.4164 170.0239,449.9564 " fill="none" id="User-to-Get collection notification" style="stroke:#181818;stroke-width:1.0;"/><polygon fill="#181818" points="175.91,451.12,167.8566,445.4506,171.0049,450.1503,166.3051,453.2987,175.91,451.12" style="stroke:#181818;stroke-width:1.0;"/></g><!--link User to Get waste segregation guide--><g id="link_User_Get waste segregation guide"><path d="M59.07,421.91 C82.18,417.23 121.8892,409.19 163.3992,400.79 " fill="none" id="User-to-Get waste segregation guide" style="stroke:#181818;stroke-width:1.0;"/><polygon fill="#181818" points="169.28,399.6,159.6654,397.4645,164.3793,400.5917,161.2522,405.3056,169.28,399.6" style="stroke:#181818;stroke-width:1.0;"/></g><!--link User to Get category of waste--><g id="link_User_Get category of waste"><path d="M59.24,399.18 C72.04,379.91 91.93,354.36 115.58,339 C134.73,326.55 152.022,319.4907 173.882,313.5207 " fill="none" id="User-to-Get category of waste" style="stroke:#181818;stroke-width:1.0;"/><polygon fill="#181818" points="179.67,311.94,169.9341,310.4524,174.8466,313.2573,172.0418,318.1698,179.67,311.94" style="stroke:#181818;stroke-width:1.0;"/></g><!--link User to Register complaints--><g id="link_User_Register complaints"><path d="M50.54,386.57 C59.16,348.95 77.74,292.66 115.58,260 C132.52,245.37 148.7517,237.8246 170.3317,232.2346 " fill="none" id="User-to-Register complaints" style="stroke:#181818;stroke-width:1.0;"/><polygon fill="#181818" points="176.14,230.73,166.4245,229.1146,171.2998,231.9838,168.4306,236.859,176.14,230.73" style="stroke:#181818;stroke-width:1.0;"/></g><!--link User to Check complaints status--><g id="link_User_Check complaints status"><path d="M44.32,386.72 C47.18,333.79 60.29,238.61 115.58,184 C129.39,170.35 141.7992,163.1302 160.4192,157.1302 " fill="none" id="User-to-Check complaints status" style="stroke:#181818;stroke-width:1.0;"/><polygon fill="#181818" points="166.13,155.29,156.3369,154.2431,161.371,156.8235,158.7906,161.8576,166.13,155.29" style="stroke:#181818;stroke-width:1.0;"/></g><!--link User to Get collection schedule--><g id="link_User_Get collection schedule"><path d="M47.43,386.64 C55.43,310.4 76.96,143.64 115.58,103 C129.19,88.67 141.8299,81.2292 160.7999,75.3392 " fill="none" id="User-to-Get collection schedule" style="stroke:#181818;stroke-width:1.0;"/><polygon fill="#181818" points="166.53,73.56,156.7487,72.4086,161.7549,75.0426,159.1209,80.0488,166.53,73.56" style="stroke:#181818;stroke-width:1.0;"/></g><!--link IOT to Collect real-time data--><g id="link_IOT_Collect real-time data"><path d="M79.82,874.79 C108.12,880.11 142.5336,886.5899 177.4836,893.1699 " fill="none" id="IOT-to-Collect real-time data" style="stroke:#181818;stroke-width:1.0;"/><polygon fill="#181818" points="183.38,894.28,175.2755,888.6839,178.4663,893.3549,173.7953,896.5458,183.38,894.28" style="stroke:#181818;stroke-width:1.0;"/></g><!--link IOT to Data transfer to IoT Core--><g id="link_IOT_Data transfer to IoT Core"><path d="M79.82,861.21 C106.1,856.27 136.8636,850.4701 169.9536,844.2401 " fill="none" id="IOT-to-Data transfer to IoT Core" style="stroke:#181818;stroke-width:1.0;"/><polygon fill="#181818" points="175.85,843.13,166.2653,840.8643,170.9363,844.0551,167.7455,848.7261,175.85,843.13" style="stroke:#181818;stroke-width:1.0;"/></g><!--link API to Provide weather data--><g id="link_API_Provide weather data"><path d="M76.98,1484.41 C105.8,1489.97 142.6385,1497.084 179.1485,1504.124 " fill="none" id="API-to-Provide weather data" style="stroke:#181818;stroke-width:1.0;"/><polygon fill="#181818" points="185.04,1505.26,176.9601,1499.6283,180.1304,1504.3133,175.4454,1507.4836,185.04,1505.26" style="stroke:#181818;stroke-width:1.0;"/></g><!--link API to Provide notification service--><g id="link_API_Provide notification service"><path d="M76.98,1471.75 C102.07,1467.03 131.7935,1461.4297 164.6835,1455.2397 " fill="none" id="API-to-Provide notification service" style="stroke:#181818;stroke-width:1.0;"/><polygon fill="#181818" points="170.58,1454.13,160.9955,1451.8636,165.6663,1455.0548,162.4751,1459.7256,170.58,1454.13" style="stroke:#181818;stroke-width:1.0;"/></g><!--SRC=[ZPF1ReCm38RlF8N5QJtm1jEagfMcIfjMTUrsTi64Q26P4jEgclRkIm9jAL1fN03xo-_uTwAeP603LegAeP2MSfP69mdcR2pi7DdkCrsPBIpf87DA0HsithRdpBhPAvd3VBsA6V_kClEYbbuhYA8MYY3zHCS4hwXHK4sQuVta0tKAFmduvs53Glg0dS5ZbdNhO-B52Ad7KG-3O-J6WIa1bOAzr6x4jGKXDqgr3OBBAoeQHIDqiTajmGEJEi_48G5buokX8ikJo96GAx9tYCjcwc-5KlDDcOW4so7Bddf-3EAj7OFWXwGZQ4AxFy4n61rx642BYlAls4Jhsp0Vzj_pIHkMfSmn_4oXiGuu4fP4X40qig19LMGInfx2fEAosPrc-zPCxlwQ_ryJbs6tzlgZswcr25X2bR6i2GfadDr2Iny2jgXTwUNzNGaNOM7iMSqVznPSMtFmhL-cVzKQ8NrNlNast2elb_p-0G00]--></g></svg>